<svg width="20" height="20" viewBox="0 0 20 20" fill="none" xmlns="http://www.w3.org/2000/svg">
<path d="M15.625 20H4.375C3.34168 20 2.5 19.1593 2.5 18.125V9.375C2.5 8.34074 3.34168 7.5 4.375 7.5H15.625C16.6583 7.5 17.5 8.34074 17.5 9.375V18.125C17.5 19.1593 16.6583 20 15.625 20ZM4.375 8.75C4.03074 8.75 3.75 9.03 3.75 9.375V18.125C3.75 18.47 4.03078 18.75 4.375 18.75H15.625C15.9693 18.75 16.25 18.47 16.25 18.125V9.375C16.25 9.03 15.9692 8.75 15.625 8.75H4.375Z" fill="#FF6C1A"/>
<path d="M14.375 8.75C14.03 8.75 13.75 8.47 13.75 8.125V5C13.75 2.93242 12.0676 1.25 10 1.25C7.93242 1.25 6.25 2.93242 6.25 5V8.125C6.25 8.47 5.97 8.75 5.625 8.75C5.28 8.75 5 8.47 5 8.125V5C5 2.24242 7.24242 0 10 0C12.7576 0 15 2.24242 15 5V8.125C15 8.47 14.72 8.75 14.375 8.75Z" fill="#FF6C1A"/>
</svg>
