<svg width="25" height="24" viewBox="0 0 25 24" fill="none" xmlns="http://www.w3.org/2000/svg">
<path d="M6.37602 14.2952L5.61002 17.1542L2.81002 17.2132C1.94702 15.6113 1.49679 13.8197 1.50002 12.0002C1.50002 10.1762 1.94402 8.45616 2.73002 6.94116L5.22202 7.39816L6.31402 9.87516C6.07933 10.559 5.9597 11.2771 5.96002 12.0002C5.96002 12.8072 6.10702 13.5812 6.37602 14.2952Z" fill="#FBBB00"/>
<path d="M23.3082 9.94531C23.4342 10.6103 23.5002 11.2983 23.5002 12.0003C23.5005 13.6468 23.1311 15.2724 22.4192 16.7571C21.7074 18.2417 20.6712 19.5476 19.3872 20.5783L16.2472 20.4183L15.8032 17.6443C17.0989 16.8847 18.0944 15.7031 18.6232 14.2973H12.7422V9.94531H23.3082Z" fill="#518EF8"/>
<path d="M19.3855 20.5772C17.4346 22.148 15.0043 23.0039 12.4995 23.0002C8.31055 23.0002 4.66855 20.6582 2.81055 17.2132L6.37555 14.2952C6.70993 15.1876 7.2353 15.9961 7.91489 16.6642C8.59448 17.3323 9.41186 17.8438 10.3098 18.1629C11.2078 18.482 12.1647 18.601 13.1135 18.5116C14.0622 18.4221 14.98 18.1264 15.8025 17.6452L19.3855 20.5772Z" fill="#28B446"/>
<path d="M19.5215 3.53224L15.9585 6.45024C15.1236 5.93043 14.1824 5.60551 13.2046 5.49967C12.2269 5.39383 11.2379 5.50978 10.3112 5.8389C9.38444 6.16802 8.54384 6.70184 7.85188 7.40066C7.15993 8.09948 6.63443 8.94531 6.31447 9.87525L2.73147 6.94025C3.65889 5.1496 5.05978 3.64841 6.78287 2.6008C8.50596 1.55319 10.4839 0.999492 12.5005 1.00024C15.1695 1.00024 17.6165 1.95024 19.5215 3.53224Z" fill="#F14336"/>
</svg>
