<svg width="378" height="52" viewBox="0 0 378 52" fill="none" xmlns="http://www.w3.org/2000/svg">
<rect x="1" y="1.00024" width="376" height="50" rx="7" fill="#1E1E1E"/>
<rect x="1" y="1.00024" width="376" height="50" rx="7" stroke="url(#paint0_linear_5786_27739)" stroke-width="2"/>
<g clip-path="url(#clip0_5786_27739)">
<mask id="mask0_5786_27739" style="mask-type:luminance" maskUnits="userSpaceOnUse" x="83" y="14" width="62" height="25">
<path d="M145 14.0002H83V38.0002H145V14.0002Z" fill="white"/>
</mask>
<g mask="url(#mask0_5786_27739)">
<path fill-rule="evenodd" clip-rule="evenodd" d="M145 16.1821C145 14.9777 144.034 14.0002 142.843 14.0002H85.1565C83.9661 14.0002 83 14.9777 83 16.1821V35.8184C83 37.0228 83.9661 38.0002 85.1565 38.0002H142.843C144.034 38.0002 145 37.0228 145 35.8184V16.1821Z" fill="#005FF9"/>
<path d="M136.015 19.7771H134.584V29.6056H136.015V19.7771Z" fill="white"/>
<path fill-rule="evenodd" clip-rule="evenodd" d="M133.038 29.6054H131.607V22.6405H133.038V29.6054ZM132.323 19.5325C132.856 19.5325 133.289 19.9705 133.289 20.5099C133.289 21.0494 132.856 21.4874 132.323 21.4874C131.789 21.4874 131.356 21.0494 131.356 20.5099C131.356 19.9705 131.789 19.5325 132.323 19.5325Z" fill="white"/>
<path fill-rule="evenodd" clip-rule="evenodd" d="M130.06 29.6055H128.654V28.8435C128.15 29.4211 127.262 29.7844 126.427 29.7844C124.43 29.7844 122.809 28.1437 122.809 26.1228C122.809 24.1024 124.43 22.4617 126.427 22.4617C127.262 22.4617 128.103 22.7802 128.654 23.3426V22.6406H130.06V29.6055ZM126.473 23.9251C127.704 23.9251 128.673 24.8164 128.673 26.1228C128.673 27.4291 127.704 28.3286 126.473 28.3286C125.242 28.3286 124.306 27.3691 124.306 26.1228C124.306 24.8769 125.242 23.9251 126.473 23.9251Z" fill="white"/>
<path fill-rule="evenodd" clip-rule="evenodd" d="M112.308 29.6055H110.901V22.6406H112.308V23.1271C112.62 22.8299 113.206 22.4628 114.018 22.4617C115.016 22.4617 115.76 22.8866 116.269 23.57C116.827 22.8931 117.746 22.4617 118.683 22.4617C120.44 22.4617 121.638 23.6622 121.638 25.5331V29.6055H120.232V25.5331C120.232 24.6244 119.5 23.8848 118.602 23.8848C117.704 23.8848 116.973 24.6244 116.973 25.5331V29.6055H115.566V25.5331C115.566 24.6244 114.835 23.8848 113.937 23.8848C113.039 23.8848 112.308 24.6244 112.308 25.5331V29.6055Z" fill="white"/>
<path d="M101.444 26.0006C101.444 27.2672 100.426 28.2975 99.1738 28.2975C97.9219 28.2975 96.9035 27.2672 96.9035 26.0006C96.9035 24.7341 97.9219 23.7037 99.1738 23.7037C100.426 23.7037 101.444 24.7341 101.444 26.0006ZM99.1738 18.3643C95.0117 18.3643 91.626 21.7897 91.626 26.0006C91.626 30.2115 95.0117 33.637 99.1738 33.637C100.698 33.637 102.169 33.1777 103.425 32.3088L103.447 32.2935L102.43 31.0979L102.413 31.1088C101.446 31.7388 100.325 32.0715 99.1738 32.0715C95.8652 32.0715 93.1733 29.3481 93.1733 26.0006C93.1733 22.6532 95.8652 19.9297 99.1738 19.9297C102.482 19.9297 105.174 22.6532 105.174 26.0006C105.174 26.4343 105.126 26.8733 105.033 27.3053C104.843 28.0935 104.298 28.3346 103.888 28.303C103.477 28.2692 102.995 27.9724 102.991 27.2459V26.6923V26.0006C102.991 23.8706 101.279 22.1383 99.1738 22.1383C97.0685 22.1383 95.3562 23.8706 95.3562 26.0006C95.3562 28.1306 97.0685 29.863 99.1738 29.863C100.197 29.863 101.156 29.4588 101.879 28.723C102.299 29.3852 102.984 29.8003 103.764 29.8635C103.831 29.869 103.9 29.8717 103.967 29.8717C104.517 29.8717 105.061 29.6857 105.499 29.3492C105.952 29.0012 106.29 28.4988 106.476 27.895C106.506 27.7973 106.561 27.5743 106.561 27.5726L106.563 27.5644C106.673 27.0801 106.722 26.5973 106.722 26.0006C106.722 21.7897 103.336 18.3643 99.1738 18.3643Z" fill="#FF9E00"/>
</g>
</g>
<path d="M166.628 31.2102C163.716 31.2102 161.448 29.0402 161.448 25.9322C161.448 22.9642 163.604 20.7382 166.544 20.7382C169.092 20.7382 170.912 22.2502 171.57 24.4342H169.064C168.756 23.4122 167.832 22.6422 166.488 22.6422C164.864 22.6422 163.632 23.8322 163.632 25.9882C163.632 27.9202 164.71 29.4042 166.726 29.4042C168.21 29.4042 169.148 28.5222 169.428 27.2762H166.516V25.5822H171.696C171.822 28.8582 169.834 31.2102 166.628 31.2102ZM176.315 31.1402C174.145 31.1402 172.521 29.4322 172.521 27.2622C172.521 25.0782 174.145 23.3842 176.315 23.3842C178.485 23.3842 180.109 25.0782 180.109 27.2622C180.109 29.4322 178.485 31.1402 176.315 31.1402ZM176.315 29.4182C177.281 29.4182 178.107 28.6482 178.107 27.2622C178.107 25.8762 177.281 25.1202 176.315 25.1202C175.349 25.1202 174.523 25.8762 174.523 27.2622C174.523 28.6482 175.349 29.4182 176.315 29.4182ZM188.924 29.1102V30.8042C188.448 31.0422 188 31.1402 187.426 31.1402C185.886 31.1402 184.92 30.2582 184.92 28.5782V25.1902H183.408V23.5242H184.92V21.3122H186.852V23.5242H188.994V25.1902H186.852V28.1302C186.852 28.9982 187.244 29.3482 187.944 29.3482C188.308 29.3482 188.644 29.2642 188.924 29.1102ZM193.322 31.1402C191.152 31.1402 189.528 29.4322 189.528 27.2622C189.528 25.0782 191.152 23.3842 193.322 23.3842C195.492 23.3842 197.116 25.0782 197.116 27.2622C197.116 29.4322 195.492 31.1402 193.322 31.1402ZM193.322 29.4182C194.288 29.4182 195.114 28.6482 195.114 27.2622C195.114 25.8762 194.288 25.1202 193.322 25.1202C192.356 25.1202 191.53 25.8762 191.53 27.2622C191.53 28.6482 192.356 29.4182 193.322 29.4182ZM203.23 31.0002H201.284V23.5242H203.076V24.5882C203.622 23.8322 204.322 23.3842 205.316 23.3842C206.338 23.3842 207.122 23.8602 207.5 24.7142C208.088 23.8882 208.844 23.3842 209.964 23.3842C211.476 23.3842 212.498 24.3782 212.498 26.1702V31.0002H210.566V26.7862C210.566 25.7362 210.118 25.1062 209.264 25.1062C208.494 25.1062 207.864 25.7082 207.864 26.8282V31.0002H205.932V26.7862C205.932 25.7362 205.484 25.1062 204.63 25.1062C203.846 25.1062 203.23 25.7082 203.23 26.8282V31.0002ZM218.615 31.0002V30.0762C218.125 30.7762 217.383 31.1402 216.361 31.1402C214.807 31.1402 213.771 30.2302 213.771 28.8302C213.771 27.3742 214.947 26.5902 217.131 26.5902C217.551 26.5902 217.915 26.6182 218.377 26.6742V26.2262C218.377 25.3862 217.901 24.8962 217.089 24.8962C216.249 24.8962 215.745 25.3862 215.675 26.2262H213.925C214.037 24.5042 215.283 23.3842 217.089 23.3842C219.049 23.3842 220.197 24.4622 220.197 26.2962V31.0002H218.615ZM215.605 28.7742C215.605 29.4042 216.053 29.7962 216.781 29.7962C217.775 29.7962 218.377 29.2502 218.377 28.3822V27.8502C217.915 27.7802 217.593 27.7522 217.257 27.7522C216.151 27.7522 215.605 28.1022 215.605 28.7742ZM224.128 21.7882C224.128 22.4462 223.596 22.9362 222.826 22.9362C222.07 22.9362 221.538 22.4462 221.538 21.7882C221.538 21.1022 222.07 20.6122 222.826 20.6122C223.596 20.6122 224.128 21.1022 224.128 21.7882ZM223.82 31.0002H221.874V23.5242H223.82V31.0002ZM227.512 31.0002H225.552V20.9482H227.512V31.0002ZM231.539 29.7542C231.539 30.5242 231.007 31.0702 230.237 31.0702C229.467 31.0702 228.921 30.5242 228.921 29.7542C228.921 28.9702 229.467 28.4242 230.237 28.4242C231.007 28.4242 231.539 28.9702 231.539 29.7542ZM234.88 27.3742V31.0002H232.934V23.5242H234.726V24.9662C235.272 24.0142 236.434 23.4402 237.638 23.4402V25.4562C235.986 25.3302 234.88 25.7222 234.88 27.3742ZM243.199 27.8502V23.5242H245.131V31.0002H243.353V30.0202C242.947 30.6782 242.121 31.1402 241.169 31.1402C239.671 31.1402 238.579 30.2302 238.579 28.2842V23.5242H240.525V27.9062C240.525 28.9562 241.043 29.4182 241.827 29.4182C242.527 29.4182 243.199 28.8582 243.199 27.8502ZM254.258 31.0002V30.0762C253.768 30.7762 253.026 31.1402 252.004 31.1402C250.45 31.1402 249.414 30.2302 249.414 28.8302C249.414 27.3742 250.59 26.5902 252.774 26.5902C253.194 26.5902 253.558 26.6182 254.02 26.6742V26.2262C254.02 25.3862 253.544 24.8962 252.732 24.8962C251.892 24.8962 251.388 25.3862 251.318 26.2262H249.568C249.68 24.5042 250.926 23.3842 252.732 23.3842C254.692 23.3842 255.84 24.4622 255.84 26.2962V31.0002H254.258ZM251.248 28.7742C251.248 29.4042 251.696 29.7962 252.424 29.7962C253.418 29.7962 254.02 29.2502 254.02 28.3822V27.8502C253.558 27.7802 253.236 27.7522 252.9 27.7522C251.794 27.7522 251.248 28.1022 251.248 28.7742ZM257.026 27.2622C257.026 25.0502 258.328 23.3842 260.344 23.3842C261.24 23.3842 261.996 23.7762 262.556 24.4902V20.9482H264.488V31.0002H262.71V29.9222C262.122 30.7062 261.31 31.1402 260.344 31.1402C258.328 31.1402 257.026 29.4462 257.026 27.2622ZM259.028 27.2622C259.028 28.6622 259.826 29.4042 260.778 29.4042C261.744 29.4042 262.542 28.6482 262.542 27.2342C262.542 25.8202 261.73 25.1062 260.778 25.1062C259.826 25.1062 259.028 25.8342 259.028 27.2622ZM268.171 27.3742V31.0002H266.225V23.5242H268.017V24.9662C268.563 24.0142 269.725 23.4402 270.929 23.4402V25.4562C269.277 25.3302 268.171 25.7222 268.171 27.3742ZM275.134 31.1262C272.894 31.1262 271.396 29.5722 271.396 27.2342C271.396 25.0082 272.95 23.3842 275.106 23.3842C277.472 23.3842 279.04 25.3022 278.69 27.7382H273.384C273.51 28.9562 274.098 29.6282 275.092 29.6282C275.946 29.6282 276.52 29.2082 276.744 28.4662H278.676C278.256 30.1602 276.954 31.1262 275.134 31.1262ZM275.064 24.8122C274.154 24.8122 273.58 25.4002 273.412 26.5062H276.632C276.576 25.4702 275.988 24.8122 275.064 24.8122ZM286.307 28.6062C286.307 30.1742 285.117 31.1402 282.989 31.1402C280.861 31.1402 279.671 30.1182 279.517 28.4522H281.379C281.393 29.2222 282.051 29.7122 283.017 29.7122C283.773 29.7122 284.347 29.4742 284.347 28.9422C284.347 28.4662 284.039 28.2702 283.325 28.1302L281.981 27.8782C280.637 27.6402 279.825 26.8982 279.825 25.7362C279.825 24.3502 281.015 23.3842 282.877 23.3842C284.753 23.3842 286.041 24.3782 286.181 25.9882H284.319C284.249 25.2602 283.703 24.8122 282.877 24.8122C282.163 24.8122 281.687 25.0782 281.687 25.5542C281.687 26.0022 281.995 26.1842 282.667 26.3102L284.109 26.5762C285.565 26.8562 286.307 27.5282 286.307 28.6062ZM293.95 28.6062C293.95 30.1742 292.76 31.1402 290.632 31.1402C288.504 31.1402 287.314 30.1182 287.16 28.4522H289.022C289.036 29.2222 289.694 29.7122 290.66 29.7122C291.416 29.7122 291.99 29.4742 291.99 28.9422C291.99 28.4662 291.682 28.2702 290.968 28.1302L289.624 27.8782C288.28 27.6402 287.468 26.8982 287.468 25.7362C287.468 24.3502 288.658 23.3842 290.52 23.3842C292.396 23.3842 293.684 24.3782 293.824 25.9882H291.962C291.892 25.2602 291.346 24.8122 290.52 24.8122C289.806 24.8122 289.33 25.0782 289.33 25.5542C289.33 26.0022 289.638 26.1842 290.31 26.3102L291.752 26.5762C293.208 26.8562 293.95 27.5282 293.95 28.6062Z" fill="#F7F7F7"/>
<defs>
<linearGradient id="paint0_linear_5786_27739" x1="7.0408e-07" y1="26.0002" x2="378" y2="26.0002" gradientUnits="userSpaceOnUse">
<stop stop-color="#005FF9"/>
<stop offset="0.509425" stop-color="#FF9E00"/>
<stop offset="1" stop-color="white"/>
</linearGradient>
<clipPath id="clip0_5786_27739">
<rect width="62" height="24" fill="white" transform="translate(83 14.0002)"/>
</clipPath>
</defs>
</svg>
