<svg width="378" height="52" viewBox="0 0 378 52" fill="none" xmlns="http://www.w3.org/2000/svg">
<rect x="1" y="1.00024" width="376" height="50" rx="7" fill="#1E1E1E"/>
<rect x="1" y="1.00024" width="376" height="50" rx="7" stroke="url(#paint0_linear_5786_27681)" stroke-width="2"/>
<path d="M112.376 28.2952L111.61 31.1542L108.81 31.2132C107.947 29.6113 107.497 27.8197 107.5 26.0002C107.5 24.1762 107.944 22.4562 108.73 20.9412L111.222 21.3982L112.314 23.8752C112.079 24.559 111.96 25.2771 111.96 26.0002C111.96 26.8072 112.107 27.5812 112.376 28.2952Z" fill="#FBBB00"/>
<path d="M129.308 23.9453C129.434 24.6103 129.5 25.2983 129.5 26.0003C129.501 27.6468 129.131 29.2724 128.419 30.7571C127.707 32.2417 126.671 33.5476 125.387 34.5783L122.247 34.4183L121.803 31.6443C123.099 30.8847 124.094 29.7031 124.623 28.2973H118.742V23.9453H129.308Z" fill="#518EF8"/>
<path d="M125.386 34.5772C123.435 36.148 121.004 37.0039 118.5 37.0002C114.311 37.0002 110.669 34.6582 108.811 31.2132L112.376 28.2952C112.71 29.1876 113.235 29.9961 113.915 30.6642C114.594 31.3323 115.412 31.8438 116.31 32.1629C117.208 32.482 118.165 32.601 119.113 32.5116C120.062 32.4221 120.98 32.1264 121.803 31.6452L125.386 34.5772Z" fill="#28B446"/>
<path d="M125.521 17.5322L121.958 20.4502C121.124 19.9304 120.182 19.6055 119.205 19.4997C118.227 19.3938 117.238 19.5098 116.311 19.8389C115.384 20.168 114.544 20.7018 113.852 21.4007C113.16 22.0995 112.634 22.9453 112.314 23.8752L108.731 20.9402C109.659 19.1496 111.06 17.6484 112.783 16.6008C114.506 15.5532 116.484 14.9995 118.5 15.0002C121.169 15.0002 123.616 15.9502 125.521 17.5322Z" fill="#F14336"/>
<path d="M152.128 31.2102C149.216 31.2102 146.948 29.0402 146.948 25.9322C146.948 22.9642 149.104 20.7382 152.044 20.7382C154.592 20.7382 156.412 22.2502 157.07 24.4342H154.564C154.256 23.4122 153.332 22.6422 151.988 22.6422C150.364 22.6422 149.132 23.8322 149.132 25.9882C149.132 27.9202 150.21 29.4042 152.226 29.4042C153.71 29.4042 154.648 28.5222 154.928 27.2762H152.016V25.5822H157.196C157.322 28.8582 155.334 31.2102 152.128 31.2102ZM161.815 31.1402C159.645 31.1402 158.021 29.4322 158.021 27.2622C158.021 25.0782 159.645 23.3842 161.815 23.3842C163.985 23.3842 165.609 25.0782 165.609 27.2622C165.609 29.4322 163.985 31.1402 161.815 31.1402ZM161.815 29.4182C162.781 29.4182 163.607 28.6482 163.607 27.2622C163.607 25.8762 162.781 25.1202 161.815 25.1202C160.849 25.1202 160.023 25.8762 160.023 27.2622C160.023 28.6482 160.849 29.4182 161.815 29.4182ZM174.424 29.1102V30.8042C173.948 31.0422 173.5 31.1402 172.926 31.1402C171.386 31.1402 170.42 30.2582 170.42 28.5782V25.1902H168.908V23.5242H170.42V21.3122H172.352V23.5242H174.494V25.1902H172.352V28.1302C172.352 28.9982 172.744 29.3482 173.444 29.3482C173.808 29.3482 174.144 29.2642 174.424 29.1102ZM178.822 31.1402C176.652 31.1402 175.028 29.4322 175.028 27.2622C175.028 25.0782 176.652 23.3842 178.822 23.3842C180.992 23.3842 182.616 25.0782 182.616 27.2622C182.616 29.4322 180.992 31.1402 178.822 31.1402ZM178.822 29.4182C179.788 29.4182 180.614 28.6482 180.614 27.2622C180.614 25.8762 179.788 25.1202 178.822 25.1202C177.856 25.1202 177.03 25.8762 177.03 27.2622C177.03 28.6482 177.856 29.4182 178.822 29.4182ZM189.962 33.8422C187.946 33.8422 186.602 32.7502 186.518 31.0282H188.394C188.478 31.8822 189.024 32.3302 189.948 32.3302C191.026 32.3302 191.586 31.7562 191.586 30.6782V29.5862C191.18 30.3002 190.41 30.7202 189.5 30.7202C187.666 30.7202 186.294 29.1662 186.294 27.0522C186.294 24.8822 187.582 23.3842 189.43 23.3842C190.438 23.3842 191.194 23.7762 191.74 24.5462V23.5242H193.518V30.6502C193.518 32.6382 192.174 33.8422 189.962 33.8422ZM188.24 27.0522C188.24 28.2702 188.87 29.0402 189.878 29.0402C190.9 29.0402 191.572 28.2422 191.572 27.0662C191.572 25.8482 190.9 25.0642 189.878 25.0642C188.884 25.0642 188.24 25.8342 188.24 27.0522ZM197.22 31.0002H195.274V23.5242H197.066V24.5882C197.612 23.8322 198.312 23.3842 199.306 23.3842C200.328 23.3842 201.112 23.8602 201.49 24.7142C202.078 23.8882 202.834 23.3842 203.954 23.3842C205.466 23.3842 206.488 24.3782 206.488 26.1702V31.0002H204.556V26.7862C204.556 25.7362 204.108 25.1062 203.254 25.1062C202.484 25.1062 201.854 25.7082 201.854 26.8282V31.0002H199.922V26.7862C199.922 25.7362 199.474 25.1062 198.62 25.1062C197.836 25.1062 197.22 25.7082 197.22 26.8282V31.0002ZM212.605 31.0002V30.0762C212.115 30.7762 211.373 31.1402 210.351 31.1402C208.797 31.1402 207.761 30.2302 207.761 28.8302C207.761 27.3742 208.937 26.5902 211.121 26.5902C211.541 26.5902 211.905 26.6182 212.367 26.6742V26.2262C212.367 25.3862 211.891 24.8962 211.079 24.8962C210.239 24.8962 209.735 25.3862 209.665 26.2262H207.915C208.027 24.5042 209.273 23.3842 211.079 23.3842C213.039 23.3842 214.187 24.4622 214.187 26.2962V31.0002H212.605ZM209.595 28.7742C209.595 29.4042 210.043 29.7962 210.771 29.7962C211.765 29.7962 212.367 29.2502 212.367 28.3822V27.8502C211.905 27.7802 211.583 27.7522 211.247 27.7522C210.141 27.7522 209.595 28.1022 209.595 28.7742ZM218.118 21.7882C218.118 22.4462 217.586 22.9362 216.816 22.9362C216.06 22.9362 215.528 22.4462 215.528 21.7882C215.528 21.1022 216.06 20.6122 216.816 20.6122C217.586 20.6122 218.118 21.1022 218.118 21.7882ZM217.81 31.0002H215.864V23.5242H217.81V31.0002ZM221.502 31.0002H219.542V20.9482H221.502V31.0002ZM230.625 31.0002V30.0762C230.135 30.7762 229.393 31.1402 228.371 31.1402C226.817 31.1402 225.781 30.2302 225.781 28.8302C225.781 27.3742 226.957 26.5902 229.141 26.5902C229.561 26.5902 229.925 26.6182 230.387 26.6742V26.2262C230.387 25.3862 229.911 24.8962 229.099 24.8962C228.259 24.8962 227.755 25.3862 227.685 26.2262H225.935C226.047 24.5042 227.293 23.3842 229.099 23.3842C231.059 23.3842 232.207 24.4622 232.207 26.2962V31.0002H230.625ZM227.615 28.7742C227.615 29.4042 228.063 29.7962 228.791 29.7962C229.785 29.7962 230.387 29.2502 230.387 28.3822V27.8502C229.925 27.7802 229.603 27.7522 229.267 27.7522C228.161 27.7522 227.615 28.1022 227.615 28.7742ZM233.394 27.2622C233.394 25.0502 234.696 23.3842 236.712 23.3842C237.608 23.3842 238.364 23.7762 238.924 24.4902V20.9482H240.856V31.0002H239.078V29.9222C238.49 30.7062 237.678 31.1402 236.712 31.1402C234.696 31.1402 233.394 29.4462 233.394 27.2622ZM235.396 27.2622C235.396 28.6622 236.194 29.4042 237.146 29.4042C238.112 29.4042 238.91 28.6482 238.91 27.2342C238.91 25.8202 238.098 25.1062 237.146 25.1062C236.194 25.1062 235.396 25.8342 235.396 27.2622ZM244.539 27.3742V31.0002H242.593V23.5242H244.385V24.9662C244.931 24.0142 246.093 23.4402 247.297 23.4402V25.4562C245.645 25.3302 244.539 25.7222 244.539 27.3742ZM251.501 31.1262C249.261 31.1262 247.763 29.5722 247.763 27.2342C247.763 25.0082 249.317 23.3842 251.473 23.3842C253.839 23.3842 255.407 25.3022 255.057 27.7382H249.751C249.877 28.9562 250.465 29.6282 251.459 29.6282C252.313 29.6282 252.887 29.2082 253.111 28.4662H255.043C254.623 30.1602 253.321 31.1262 251.501 31.1262ZM251.431 24.8122C250.521 24.8122 249.947 25.4002 249.779 26.5062H252.999C252.943 25.4702 252.355 24.8122 251.431 24.8122ZM262.674 28.6062C262.674 30.1742 261.484 31.1402 259.356 31.1402C257.228 31.1402 256.038 30.1182 255.884 28.4522H257.746C257.76 29.2222 258.418 29.7122 259.384 29.7122C260.14 29.7122 260.714 29.4742 260.714 28.9422C260.714 28.4662 260.406 28.2702 259.692 28.1302L258.348 27.8782C257.004 27.6402 256.192 26.8982 256.192 25.7362C256.192 24.3502 257.382 23.3842 259.244 23.3842C261.12 23.3842 262.408 24.3782 262.548 25.9882H260.686C260.616 25.2602 260.07 24.8122 259.244 24.8122C258.53 24.8122 258.054 25.0782 258.054 25.5542C258.054 26.0022 258.362 26.1842 259.034 26.3102L260.476 26.5762C261.932 26.8562 262.674 27.5282 262.674 28.6062ZM270.317 28.6062C270.317 30.1742 269.127 31.1402 266.999 31.1402C264.871 31.1402 263.681 30.1182 263.527 28.4522H265.389C265.403 29.2222 266.061 29.7122 267.027 29.7122C267.783 29.7122 268.357 29.4742 268.357 28.9422C268.357 28.4662 268.049 28.2702 267.335 28.1302L265.991 27.8782C264.647 27.6402 263.835 26.8982 263.835 25.7362C263.835 24.3502 265.025 23.3842 266.887 23.3842C268.763 23.3842 270.051 24.3782 270.191 25.9882H268.329C268.259 25.2602 267.713 24.8122 266.887 24.8122C266.173 24.8122 265.697 25.0782 265.697 25.5542C265.697 26.0022 266.005 26.1842 266.677 26.3102L268.119 26.5762C269.575 26.8562 270.317 27.5282 270.317 28.6062Z" fill="#F7F7F7"/>
<defs>
<linearGradient id="paint0_linear_5786_27681" x1="7.0408e-07" y1="26.0002" x2="378" y2="26.0002" gradientUnits="userSpaceOnUse">
<stop stop-color="#F14336"/>
<stop offset="0.319627" stop-color="#FBBB00"/>
<stop offset="0.6576" stop-color="#28B446"/>
<stop offset="1" stop-color="#518EF8"/>
</linearGradient>
</defs>
</svg>
