<svg width="378" height="52" viewBox="0 0 378 52" fill="none" xmlns="http://www.w3.org/2000/svg">
<rect x="1" y="1.00024" width="376" height="50" rx="7" fill="#1E1E1E"/>
<rect x="1" y="1.00024" width="376" height="50" rx="7" stroke="url(#paint0_linear_5786_27701)" stroke-width="2"/>
<path d="M117.822 32.1073H113.937V21.3101H117.765V22.631C117.765 22.631 118.621 21.0195 120.628 21.0195C122.744 21.0195 123.542 22.7636 123.542 22.7636C123.542 22.7636 124.494 21.0195 126.861 21.0195C129.194 21.0195 130.62 22.5488 130.62 25.3201V32.1073H126.735V26.0769C126.735 25.369 126.322 24.6319 125.487 24.6319C124.621 24.6319 124.221 25.4551 124.221 26.2983V32.1073H120.336V26.1918C120.336 25.3492 119.907 24.6319 119.064 24.6319C118.283 24.6319 117.822 25.3174 117.822 26.3067V32.1073Z" fill="#7F19FF"/>
<path d="M136.665 21.0195C133.676 21.0195 131.673 23.5911 131.673 26.7266C131.673 30.2595 133.98 32.4004 136.618 32.4004C138.77 32.4004 139.704 31.016 139.704 31.016V32.1072H143.532V21.3101H139.704V22.4013C139.704 22.4013 138.676 21.0195 136.665 21.0195ZM137.639 24.5729C138.94 24.5729 139.825 25.6205 139.825 26.7194C139.825 27.8213 138.94 28.9023 137.646 28.9023C136.588 28.9023 135.475 28.045 135.475 26.7483C135.475 25.4979 136.452 24.5729 137.639 24.5729Z" fill="#7F19FF"/>
<path d="M145.144 32.1077V21.3105H149.029V32.1077H145.144Z" fill="#7F19FF"/>
<path d="M147.089 20.3956C148.296 20.3956 149.275 19.4117 149.275 18.1979C149.275 16.9842 148.296 16.0002 147.089 16.0002C145.881 16.0002 144.902 16.9842 144.902 18.1979C144.902 19.4117 145.881 20.3956 147.089 20.3956Z" fill="#7F19FF"/>
<path d="M150.614 32.108V16.5439H154.499V32.108H150.614Z" fill="#7F19FF"/>
<path d="M44.501 21.3682H48.6285L51.032 27.5491L53.4666 21.3682H57.4854L51.4339 36.0003H47.3896L49.0461 32.123L44.501 21.3682Z" fill="#35007D"/>
<path d="M61.6721 21.1221C58.5709 21.1221 56.6104 23.9178 56.6104 26.702C56.6104 29.835 58.7598 32.3189 61.6133 32.3189C63.7418 32.3189 64.5444 31.0153 64.5444 31.0153V32.0308H68.1444V21.3682H64.5444V22.3375C64.5444 22.3375 63.649 21.1221 61.6721 21.1221ZM62.4378 24.5486C63.8688 24.5486 64.6072 25.6867 64.6072 26.7137C64.6072 27.8196 63.8161 28.9048 62.4378 28.9048C61.2956 28.9048 60.2633 27.9664 60.2633 26.7608C60.2633 25.538 61.0936 24.5486 62.4378 24.5486Z" fill="#35007D"/>
<path d="M69.3838 32.0309V16.6602H73.1492V22.3746C73.1492 22.3746 74.0436 21.1236 75.9167 21.1236C78.208 21.1236 79.5504 22.8396 79.5504 25.2918V32.0309H75.8125V26.2149C75.8125 25.3851 75.4193 24.5834 74.5285 24.5834C73.6218 24.5834 73.1492 25.3972 73.1492 26.2149V32.0309H69.3838Z" fill="#35007D"/>
<path d="M85.9709 21.124C82.4194 21.124 80.3047 23.8386 80.3047 26.747C80.3047 30.0569 82.8652 32.3196 85.9844 32.3196C89.0076 32.3196 91.6531 30.1596 91.6531 26.8026C91.6531 23.1294 88.8832 21.124 85.9709 21.124ZM86.0048 24.5807C87.2593 24.5807 88.1274 25.631 88.1274 26.751C88.1274 27.7063 87.3185 28.8846 86.0048 28.8846C84.8011 28.8846 83.8977 27.914 83.8977 26.7406C83.8977 25.6102 84.6488 24.5807 86.0048 24.5807Z" fill="#35007D"/>
<path d="M97.926 21.124C94.3745 21.124 92.2598 23.8386 92.2598 26.747C92.2598 30.0569 94.8202 32.3196 97.9394 32.3196C100.963 32.3196 103.608 30.1596 103.608 26.8026C103.608 23.1294 100.838 21.124 97.926 21.124ZM97.9599 24.5807C99.2144 24.5807 100.082 25.631 100.082 26.751C100.082 27.7063 99.2736 28.8846 97.9599 28.8846C96.7562 28.8846 95.8528 27.914 95.8528 26.7406C95.8528 25.6102 96.6039 24.5807 97.9599 24.5807Z" fill="#35007D"/>
<path d="M106.579 32.2572C107.96 32.2572 109.08 31.1319 109.08 29.7438C109.08 28.3557 107.96 27.2305 106.579 27.2305C105.199 27.2305 104.079 28.3557 104.079 29.7438C104.079 31.1319 105.199 32.2572 106.579 32.2572Z" fill="#35007D"/>
<path d="M109.902 26.3072H105.4L109.395 16.6602H113.88L109.902 26.3072Z" fill="#35007D"/>
<path d="M176.127 31.2102C173.215 31.2102 170.947 29.0402 170.947 25.9322C170.947 22.9642 173.103 20.7382 176.043 20.7382C178.591 20.7382 180.411 22.2502 181.069 24.4342H178.563C178.255 23.4122 177.331 22.6422 175.987 22.6422C174.363 22.6422 173.131 23.8322 173.131 25.9882C173.131 27.9202 174.209 29.4042 176.225 29.4042C177.709 29.4042 178.647 28.5222 178.927 27.2762H176.015V25.5822H181.195C181.321 28.8582 179.333 31.2102 176.127 31.2102ZM185.814 31.1402C183.644 31.1402 182.02 29.4322 182.02 27.2622C182.02 25.0782 183.644 23.3842 185.814 23.3842C187.984 23.3842 189.608 25.0782 189.608 27.2622C189.608 29.4322 187.984 31.1402 185.814 31.1402ZM185.814 29.4182C186.78 29.4182 187.606 28.6482 187.606 27.2622C187.606 25.8762 186.78 25.1202 185.814 25.1202C184.848 25.1202 184.022 25.8762 184.022 27.2622C184.022 28.6482 184.848 29.4182 185.814 29.4182ZM198.423 29.1102V30.8042C197.947 31.0422 197.499 31.1402 196.925 31.1402C195.385 31.1402 194.419 30.2582 194.419 28.5782V25.1902H192.907V23.5242H194.419V21.3122H196.351V23.5242H198.493V25.1902H196.351V28.1302C196.351 28.9982 196.743 29.3482 197.443 29.3482C197.807 29.3482 198.143 29.2642 198.423 29.1102ZM202.821 31.1402C200.651 31.1402 199.027 29.4322 199.027 27.2622C199.027 25.0782 200.651 23.3842 202.821 23.3842C204.991 23.3842 206.615 25.0782 206.615 27.2622C206.615 29.4322 204.991 31.1402 202.821 31.1402ZM202.821 29.4182C203.787 29.4182 204.613 28.6482 204.613 27.2622C204.613 25.8762 203.787 25.1202 202.821 25.1202C201.855 25.1202 201.029 25.8762 201.029 27.2622C201.029 28.6482 201.855 29.4182 202.821 29.4182ZM217.517 23.5242L213.877 33.7022H211.763L212.827 30.9162L209.887 23.5242H211.987L213.863 28.6482L215.571 23.5242H217.517ZM222.632 31.0002V30.0762C222.142 30.7762 221.4 31.1402 220.378 31.1402C218.824 31.1402 217.788 30.2302 217.788 28.8302C217.788 27.3742 218.964 26.5902 221.148 26.5902C221.568 26.5902 221.932 26.6182 222.394 26.6742V26.2262C222.394 25.3862 221.918 24.8962 221.106 24.8962C220.266 24.8962 219.762 25.3862 219.692 26.2262H217.942C218.054 24.5042 219.3 23.3842 221.106 23.3842C223.066 23.3842 224.214 24.4622 224.214 26.2962V31.0002H222.632ZM219.622 28.7742C219.622 29.4042 220.07 29.7962 220.798 29.7962C221.792 29.7962 222.394 29.2502 222.394 28.3822V27.8502C221.932 27.7802 221.61 27.7522 221.274 27.7522C220.168 27.7522 219.622 28.1022 219.622 28.7742ZM227.836 26.9262V31.0002H225.89V20.9482H227.836V24.5042C228.354 23.8182 228.998 23.3842 229.978 23.3842C231.476 23.3842 232.512 24.3642 232.512 26.1702V31.0002H230.58V26.8282C230.58 25.7222 230.146 25.1062 229.264 25.1062C228.494 25.1062 227.836 25.7222 227.836 26.9262ZM237.493 31.1402C235.323 31.1402 233.699 29.4322 233.699 27.2622C233.699 25.0782 235.323 23.3842 237.493 23.3842C239.663 23.3842 241.287 25.0782 241.287 27.2622C241.287 29.4322 239.663 31.1402 237.493 31.1402ZM237.493 29.4182C238.459 29.4182 239.285 28.6482 239.285 27.2622C239.285 25.8762 238.459 25.1202 237.493 25.1202C236.527 25.1202 235.701 25.8762 235.701 27.2622C235.701 28.6482 236.527 29.4182 237.493 29.4182ZM245.833 31.1402C243.663 31.1402 242.039 29.4322 242.039 27.2622C242.039 25.0782 243.663 23.3842 245.833 23.3842C248.003 23.3842 249.627 25.0782 249.627 27.2622C249.627 29.4322 248.003 31.1402 245.833 31.1402ZM245.833 29.4182C246.799 29.4182 247.625 28.6482 247.625 27.2622C247.625 25.8762 246.799 25.1202 245.833 25.1202C244.867 25.1202 244.041 25.8762 244.041 27.2622C244.041 28.6482 244.867 29.4182 245.833 29.4182ZM250.718 33.7022H248.8L254.974 20.9482H256.892L250.718 33.7022ZM259.186 31.0002H257.24V23.5242H259.032V24.5882C259.578 23.8322 260.278 23.3842 261.272 23.3842C262.294 23.3842 263.078 23.8602 263.456 24.7142C264.044 23.8882 264.8 23.3842 265.92 23.3842C267.432 23.3842 268.454 24.3782 268.454 26.1702V31.0002H266.522V26.7862C266.522 25.7362 266.074 25.1062 265.22 25.1062C264.45 25.1062 263.82 25.7082 263.82 26.8282V31.0002H261.888V26.7862C261.888 25.7362 261.44 25.1062 260.586 25.1062C259.802 25.1062 259.186 25.7082 259.186 26.8282V31.0002ZM274.571 31.0002V30.0762C274.081 30.7762 273.339 31.1402 272.317 31.1402C270.763 31.1402 269.727 30.2302 269.727 28.8302C269.727 27.3742 270.903 26.5902 273.087 26.5902C273.507 26.5902 273.871 26.6182 274.333 26.6742V26.2262C274.333 25.3862 273.857 24.8962 273.045 24.8962C272.205 24.8962 271.701 25.3862 271.631 26.2262H269.881C269.993 24.5042 271.239 23.3842 273.045 23.3842C275.005 23.3842 276.153 24.4622 276.153 26.2962V31.0002H274.571ZM271.561 28.7742C271.561 29.4042 272.009 29.7962 272.737 29.7962C273.731 29.7962 274.333 29.2502 274.333 28.3822V27.8502C273.871 27.7802 273.549 27.7522 273.213 27.7522C272.107 27.7522 271.561 28.1022 271.561 28.7742ZM280.084 21.7882C280.084 22.4462 279.552 22.9362 278.782 22.9362C278.026 22.9362 277.494 22.4462 277.494 21.7882C277.494 21.1022 278.026 20.6122 278.782 20.6122C279.552 20.6122 280.084 21.1022 280.084 21.7882ZM279.776 31.0002H277.83V23.5242H279.776V31.0002ZM283.468 31.0002H281.508V20.9482H283.468V31.0002ZM292.591 31.0002V30.0762C292.101 30.7762 291.359 31.1402 290.337 31.1402C288.783 31.1402 287.747 30.2302 287.747 28.8302C287.747 27.3742 288.923 26.5902 291.107 26.5902C291.527 26.5902 291.891 26.6182 292.353 26.6742V26.2262C292.353 25.3862 291.877 24.8962 291.065 24.8962C290.225 24.8962 289.721 25.3862 289.651 26.2262H287.901C288.013 24.5042 289.259 23.3842 291.065 23.3842C293.025 23.3842 294.173 24.4622 294.173 26.2962V31.0002H292.591ZM289.581 28.7742C289.581 29.4042 290.029 29.7962 290.757 29.7962C291.751 29.7962 292.353 29.2502 292.353 28.3822V27.8502C291.891 27.7802 291.569 27.7522 291.233 27.7522C290.127 27.7522 289.581 28.1022 289.581 28.7742ZM295.359 27.2622C295.359 25.0502 296.661 23.3842 298.677 23.3842C299.573 23.3842 300.329 23.7762 300.889 24.4902V20.9482H302.821V31.0002H301.043V29.9222C300.455 30.7062 299.643 31.1402 298.677 31.1402C296.661 31.1402 295.359 29.4462 295.359 27.2622ZM297.361 27.2622C297.361 28.6622 298.159 29.4042 299.111 29.4042C300.077 29.4042 300.875 28.6482 300.875 27.2342C300.875 25.8202 300.063 25.1062 299.111 25.1062C298.159 25.1062 297.361 25.8342 297.361 27.2622ZM306.504 27.3742V31.0002H304.558V23.5242H306.35V24.9662C306.896 24.0142 308.058 23.4402 309.262 23.4402V25.4562C307.61 25.3302 306.504 25.7222 306.504 27.3742ZM313.467 31.1262C311.227 31.1262 309.729 29.5722 309.729 27.2342C309.729 25.0082 311.283 23.3842 313.439 23.3842C315.805 23.3842 317.373 25.3022 317.023 27.7382H311.717C311.843 28.9562 312.431 29.6282 313.425 29.6282C314.279 29.6282 314.853 29.2082 315.077 28.4662H317.009C316.589 30.1602 315.287 31.1262 313.467 31.1262ZM313.397 24.8122C312.487 24.8122 311.913 25.4002 311.745 26.5062H314.965C314.909 25.4702 314.321 24.8122 313.397 24.8122ZM324.64 28.6062C324.64 30.1742 323.45 31.1402 321.322 31.1402C319.194 31.1402 318.004 30.1182 317.85 28.4522H319.712C319.726 29.2222 320.384 29.7122 321.35 29.7122C322.106 29.7122 322.68 29.4742 322.68 28.9422C322.68 28.4662 322.372 28.2702 321.658 28.1302L320.314 27.8782C318.97 27.6402 318.158 26.8982 318.158 25.7362C318.158 24.3502 319.348 23.3842 321.21 23.3842C323.086 23.3842 324.374 24.3782 324.514 25.9882H322.652C322.582 25.2602 322.036 24.8122 321.21 24.8122C320.496 24.8122 320.02 25.0782 320.02 25.5542C320.02 26.0022 320.328 26.1842 321 26.3102L322.442 26.5762C323.898 26.8562 324.64 27.5282 324.64 28.6062ZM332.283 28.6062C332.283 30.1742 331.093 31.1402 328.965 31.1402C326.837 31.1402 325.647 30.1182 325.493 28.4522H327.355C327.369 29.2222 328.027 29.7122 328.993 29.7122C329.749 29.7122 330.323 29.4742 330.323 28.9422C330.323 28.4662 330.015 28.2702 329.301 28.1302L327.957 27.8782C326.613 27.6402 325.801 26.8982 325.801 25.7362C325.801 24.3502 326.991 23.3842 328.853 23.3842C330.729 23.3842 332.017 24.3782 332.157 25.9882H330.295C330.225 25.2602 329.679 24.8122 328.853 24.8122C328.139 24.8122 327.663 25.0782 327.663 25.5542C327.663 26.0022 327.971 26.1842 328.643 26.3102L330.085 26.5762C331.541 26.8562 332.283 27.5282 332.283 28.6062Z" fill="#F7F7F7"/>
<defs>
<linearGradient id="paint0_linear_5786_27701" x1="7.0408e-07" y1="26.0002" x2="378" y2="26.0002" gradientUnits="userSpaceOnUse">
<stop stop-color="#35007D"/>
<stop offset="1" stop-color="#7F19FF"/>
</linearGradient>
</defs>
</svg>
