<svg width="62" height="24" viewBox="0 0 62 24" fill="none" xmlns="http://www.w3.org/2000/svg">
<mask id="mask0_5786_27727" style="mask-type:luminance" maskUnits="userSpaceOnUse" x="0" y="0" width="62" height="25">
<path d="M62 0.000244141H0V24.0002H62V0.000244141Z" fill="white"/>
</mask>
<g mask="url(#mask0_5786_27727)">
<path fill-rule="evenodd" clip-rule="evenodd" d="M62 2.18206C62 0.977699 61.0339 0.000244141 59.8435 0.000244141H2.15652C0.966122 0.000244141 0 0.977699 0 2.18206V21.8184C0 23.0228 0.966122 24.0002 2.15652 24.0002H59.8435C61.0339 24.0002 62 23.0228 62 21.8184V2.18206Z" fill="#005FF9"/>
<path d="M53.0148 5.7771H51.584V15.6056H53.0148V5.7771Z" fill="white"/>
<path fill-rule="evenodd" clip-rule="evenodd" d="M50.038 15.6054H48.6071V8.64047H50.038V15.6054ZM49.3226 5.53247C49.8558 5.53247 50.2887 5.97047 50.2887 6.50993C50.2887 7.04938 49.8558 7.48738 49.3226 7.48738C48.7894 7.48738 48.3564 7.04938 48.3564 6.50993C48.3564 5.97047 48.7894 5.53247 49.3226 5.53247Z" fill="white"/>
<path fill-rule="evenodd" clip-rule="evenodd" d="M47.0604 15.6055H45.6544V14.8435C45.1503 15.4211 44.2624 15.7844 43.4272 15.7844C41.4303 15.7844 39.8086 14.1437 39.8086 12.1228C39.8086 10.1024 41.4303 8.46167 43.4272 8.46167C44.2624 8.46167 45.1034 8.78022 45.6544 9.34258V8.64058H47.0604V15.6055ZM43.4731 9.92512C44.7044 9.92512 45.6733 10.8164 45.6733 12.1228C45.6733 13.4291 44.7044 14.3286 43.4731 14.3286C42.2417 14.3286 41.3058 13.3691 41.3058 12.1228C41.3058 10.8769 42.2417 9.92512 43.4731 9.92512Z" fill="white"/>
<path fill-rule="evenodd" clip-rule="evenodd" d="M29.308 15.6055H27.9014V8.64058H29.308V9.12712C29.6201 8.82985 30.2056 8.46276 31.0175 8.46167C32.016 8.46167 32.76 8.88658 33.2695 9.57003C33.827 8.89312 34.7462 8.46167 35.6826 8.46167C37.4402 8.46167 38.6382 9.66222 38.6382 11.5331V15.6055H37.2316V11.5331C37.2316 10.6244 36.5005 9.88476 35.6023 9.88476C34.7036 9.88476 33.9731 10.6244 33.9731 11.5331V15.6055H32.5665V11.5331C32.5665 10.6244 31.8354 9.88476 30.9372 9.88476C30.039 9.88476 29.308 10.6244 29.308 11.5331V15.6055Z" fill="white"/>
<path d="M18.4441 12.0006C18.4441 13.2672 17.4257 14.2975 16.1738 14.2975C14.9219 14.2975 13.9035 13.2672 13.9035 12.0006C13.9035 10.7341 14.9219 9.70371 16.1738 9.70371C17.4257 9.70371 18.4441 10.7341 18.4441 12.0006ZM16.1738 4.36426C12.0117 4.36426 8.62598 7.78971 8.62598 12.0006C8.62598 16.2115 12.0117 19.637 16.1738 19.637C17.6985 19.637 19.1687 19.1777 20.4254 18.3088L20.4469 18.2935L19.4302 17.0979L19.4129 17.1088C18.4457 17.7388 17.3254 18.0715 16.1738 18.0715C12.8652 18.0715 10.1733 15.3481 10.1733 12.0006C10.1733 8.65317 12.8652 5.92971 16.1738 5.92971C19.4824 5.92971 22.1743 8.65317 22.1743 12.0006C22.1743 12.4343 22.1263 12.8733 22.0331 13.3053C21.8433 14.0935 21.2977 14.3346 20.8885 14.303C20.4766 14.2692 19.9946 13.9724 19.9914 13.2459V12.6923V12.0006C19.9914 9.87062 18.2791 8.13826 16.1738 8.13826C14.0685 8.13826 12.3562 9.87062 12.3562 12.0006C12.3562 14.1306 14.0685 15.863 16.1738 15.863C17.1965 15.863 18.1556 15.4588 18.8786 14.723C19.2991 15.3852 19.9844 15.8003 20.7645 15.8635C20.8313 15.869 20.8998 15.8717 20.9672 15.8717C21.5166 15.8717 22.0606 15.6857 22.4994 15.3492C22.9517 15.0012 23.2898 14.4988 23.4763 13.895C23.506 13.7973 23.561 13.5743 23.561 13.5726L23.5626 13.5644C23.6726 13.0801 23.7216 12.5973 23.7216 12.0006C23.7216 7.78971 20.3359 4.36426 16.1738 4.36426Z" fill="#FF9E00"/>
</g>
</svg>
