<svg width="378" height="52" viewBox="0 0 378 52" fill="none" xmlns="http://www.w3.org/2000/svg">
<rect x="1" y="1.00024" width="376" height="50" rx="7" fill="#1E1E1E"/>
<rect x="1" y="1.00024" width="376" height="50" rx="7" stroke="url(#paint0_linear_5786_27681)" stroke-width="2"/>
<path d="M105.128 31.2102C102.216 31.2102 99.948 29.0402 99.948 25.9322C99.948 22.9642 102.104 20.7382 105.044 20.7382C107.592 20.7382 109.412 22.2502 110.07 24.4342H107.564C107.256 23.4122 106.332 22.6422 104.988 22.6422C103.364 22.6422 102.132 23.8322 102.132 25.9882C102.132 27.9202 103.21 29.4042 105.226 29.4042C106.71 29.4042 107.648 28.5222 107.928 27.2762H105.016V25.5822H110.196C110.322 28.8582 108.334 31.2102 105.128 31.2102ZM114.815 31.1402C112.645 31.1402 111.021 29.4322 111.021 27.2622C111.021 25.0782 112.645 23.3842 114.815 23.3842C116.985 23.3842 118.609 25.0782 118.609 27.2622C118.609 29.4322 116.985 31.1402 114.815 31.1402ZM114.815 29.4182C115.781 29.4182 116.607 28.6482 116.607 27.2622C116.607 25.8762 115.781 25.1202 114.815 25.1202C113.849 25.1202 113.023 25.8762 113.023 27.2622C113.023 28.6482 113.849 29.4182 114.815 29.4182ZM127.424 29.1102V30.8042C126.948 31.0422 126.5 31.1402 125.926 31.1402C124.386 31.1402 123.42 30.2582 123.42 28.5782V25.1902H121.908V23.5242H123.42V21.3122H125.352V23.5242H127.494V25.1902H125.352V28.1302C125.352 28.9982 125.744 29.3482 126.444 29.3482C126.808 29.3482 127.144 29.2642 127.424 29.1102ZM131.822 31.1402C129.652 31.1402 128.028 29.4322 128.028 27.2622C128.028 25.0782 129.652 23.3842 131.822 23.3842C133.992 23.3842 135.616 25.0782 135.616 27.2622C135.616 29.4322 133.992 31.1402 131.822 31.1402ZM131.822 29.4182C132.788 29.4182 133.614 28.6482 133.614 27.2622C133.614 25.8762 132.788 25.1202 131.822 25.1202C130.856 25.1202 130.03 25.8762 130.03 27.2622C130.03 28.6482 130.856 29.4182 131.822 29.4182ZM146.518 23.5242L142.878 33.7022H140.764L141.828 30.9162L138.888 23.5242H140.988L142.864 28.6482L144.572 23.5242H146.518ZM150.416 31.1402C148.246 31.1402 146.622 29.4322 146.622 27.2622C146.622 25.0782 148.246 23.3842 150.416 23.3842C152.586 23.3842 154.21 25.0782 154.21 27.2622C154.21 29.4322 152.586 31.1402 150.416 31.1402ZM150.416 29.4182C151.382 29.4182 152.208 28.6482 152.208 27.2622C152.208 25.8762 151.382 25.1202 150.416 25.1202C149.45 25.1202 148.624 25.8762 148.624 27.2622C148.624 28.6482 149.45 29.4182 150.416 29.4182ZM160.002 27.8502V23.5242H161.934V31.0002H160.156V30.0202C159.75 30.6782 158.924 31.1402 157.972 31.1402C156.474 31.1402 155.382 30.2302 155.382 28.2842V23.5242H157.328V27.9062C157.328 28.9562 157.846 29.4182 158.63 29.4182C159.33 29.4182 160.002 28.8582 160.002 27.8502ZM165.628 27.3742V31.0002H163.682V23.5242H165.474V24.9662C166.02 24.0142 167.182 23.4402 168.386 23.4402V25.4562C166.734 25.3302 165.628 25.7222 165.628 27.3742ZM175.627 31.1402C173.457 31.1402 171.833 29.4322 171.833 27.2622C171.833 25.0782 173.457 23.3842 175.627 23.3842C177.797 23.3842 179.421 25.0782 179.421 27.2622C179.421 29.4322 177.797 31.1402 175.627 31.1402ZM175.627 29.4182C176.593 29.4182 177.419 28.6482 177.419 27.2622C177.419 25.8762 176.593 25.1202 175.627 25.1202C174.661 25.1202 173.835 25.8762 173.835 27.2622C173.835 28.6482 174.661 29.4182 175.627 29.4182ZM186.604 31.0002L185.19 26.1422L183.79 31.0002H181.844L179.716 23.5242H181.606L182.88 28.2562L184.252 23.5242H186.17L187.5 28.2562L188.76 23.5242H190.678L188.536 31.0002H186.604ZM193.601 26.9262V31.0002H191.655V23.5242H193.447V24.5882C193.993 23.8462 194.763 23.3842 195.743 23.3842C197.241 23.3842 198.277 24.3642 198.277 26.1702V31.0002H196.345V26.8282C196.345 25.7222 195.911 25.1062 195.029 25.1062C194.259 25.1062 193.601 25.7222 193.601 26.9262ZM204.826 31.0002H202.88V23.5242H204.672V24.5882C205.218 23.8322 205.918 23.3842 206.912 23.3842C207.934 23.3842 208.718 23.8602 209.096 24.7142C209.684 23.8882 210.44 23.3842 211.56 23.3842C213.072 23.3842 214.094 24.3782 214.094 26.1702V31.0002H212.162V26.7862C212.162 25.7362 211.714 25.1062 210.86 25.1062C210.09 25.1062 209.46 25.7082 209.46 26.8282V31.0002H207.528V26.7862C207.528 25.7362 207.08 25.1062 206.226 25.1062C205.442 25.1062 204.826 25.7082 204.826 26.8282V31.0002ZM220.211 31.0002V30.0762C219.721 30.7762 218.979 31.1402 217.957 31.1402C216.403 31.1402 215.367 30.2302 215.367 28.8302C215.367 27.3742 216.543 26.5902 218.727 26.5902C219.147 26.5902 219.511 26.6182 219.973 26.6742V26.2262C219.973 25.3862 219.497 24.8962 218.685 24.8962C217.845 24.8962 217.341 25.3862 217.271 26.2262H215.521C215.633 24.5042 216.879 23.3842 218.685 23.3842C220.645 23.3842 221.793 24.4622 221.793 26.2962V31.0002H220.211ZM217.201 28.7742C217.201 29.4042 217.649 29.7962 218.377 29.7962C219.371 29.7962 219.973 29.2502 219.973 28.3822V27.8502C219.511 27.7802 219.189 27.7522 218.853 27.7522C217.747 27.7522 217.201 28.1022 217.201 28.7742ZM225.724 21.7882C225.724 22.4462 225.192 22.9362 224.422 22.9362C223.666 22.9362 223.134 22.4462 223.134 21.7882C223.134 21.1022 223.666 20.6122 224.422 20.6122C225.192 20.6122 225.724 21.1022 225.724 21.7882ZM225.416 31.0002H223.47V23.5242H225.416V31.0002ZM229.107 31.0002H227.147V20.9482H229.107V31.0002ZM238.23 31.0002V30.0762C237.74 30.7762 236.998 31.1402 235.976 31.1402C234.422 31.1402 233.386 30.2302 233.386 28.8302C233.386 27.3742 234.562 26.5902 236.746 26.5902C237.166 26.5902 237.53 26.6182 237.992 26.6742V26.2262C237.992 25.3862 237.516 24.8962 236.704 24.8962C235.864 24.8962 235.36 25.3862 235.29 26.2262H233.54C233.652 24.5042 234.898 23.3842 236.704 23.3842C238.664 23.3842 239.812 24.4622 239.812 26.2962V31.0002H238.23ZM235.22 28.7742C235.22 29.4042 235.668 29.7962 236.396 29.7962C237.39 29.7962 237.992 29.2502 237.992 28.3822V27.8502C237.53 27.7802 237.208 27.7522 236.872 27.7522C235.766 27.7522 235.22 28.1022 235.22 28.7742ZM240.999 27.2622C240.999 25.0502 242.301 23.3842 244.317 23.3842C245.213 23.3842 245.969 23.7762 246.529 24.4902V20.9482H248.461V31.0002H246.683V29.9222C246.095 30.7062 245.283 31.1402 244.317 31.1402C242.301 31.1402 240.999 29.4462 240.999 27.2622ZM243.001 27.2622C243.001 28.6622 243.799 29.4042 244.751 29.4042C245.717 29.4042 246.515 28.6482 246.515 27.2342C246.515 25.8202 245.703 25.1062 244.751 25.1062C243.799 25.1062 243.001 25.8342 243.001 27.2622ZM252.144 27.3742V31.0002H250.198V23.5242H251.99V24.9662C252.536 24.0142 253.698 23.4402 254.902 23.4402V25.4562C253.25 25.3302 252.144 25.7222 252.144 27.3742ZM259.106 31.1262C256.866 31.1262 255.368 29.5722 255.368 27.2342C255.368 25.0082 256.922 23.3842 259.078 23.3842C261.444 23.3842 263.012 25.3022 262.662 27.7382H257.356C257.482 28.9562 258.07 29.6282 259.064 29.6282C259.918 29.6282 260.492 29.2082 260.716 28.4662H262.648C262.228 30.1602 260.926 31.1262 259.106 31.1262ZM259.036 24.8122C258.126 24.8122 257.552 25.4002 257.384 26.5062H260.604C260.548 25.4702 259.96 24.8122 259.036 24.8122ZM270.28 28.6062C270.28 30.1742 269.09 31.1402 266.962 31.1402C264.834 31.1402 263.644 30.1182 263.49 28.4522H265.352C265.366 29.2222 266.024 29.7122 266.99 29.7122C267.746 29.7122 268.32 29.4742 268.32 28.9422C268.32 28.4662 268.012 28.2702 267.298 28.1302L265.954 27.8782C264.61 27.6402 263.798 26.8982 263.798 25.7362C263.798 24.3502 264.988 23.3842 266.85 23.3842C268.726 23.3842 270.014 24.3782 270.154 25.9882H268.292C268.222 25.2602 267.676 24.8122 266.85 24.8122C266.136 24.8122 265.66 25.0782 265.66 25.5542C265.66 26.0022 265.968 26.1842 266.64 26.3102L268.082 26.5762C269.538 26.8562 270.28 27.5282 270.28 28.6062ZM277.922 28.6062C277.922 30.1742 276.732 31.1402 274.604 31.1402C272.476 31.1402 271.286 30.1182 271.132 28.4522H272.994C273.008 29.2222 273.666 29.7122 274.632 29.7122C275.388 29.7122 275.962 29.4742 275.962 28.9422C275.962 28.4662 275.654 28.2702 274.94 28.1302L273.596 27.8782C272.252 27.6402 271.44 26.8982 271.44 25.7362C271.44 24.3502 272.63 23.3842 274.492 23.3842C276.368 23.3842 277.656 24.3782 277.796 25.9882H275.934C275.864 25.2602 275.318 24.8122 274.492 24.8122C273.778 24.8122 273.302 25.0782 273.302 25.5542C273.302 26.0022 273.61 26.1842 274.282 26.3102L275.724 26.5762C277.18 26.8562 277.922 27.5282 277.922 28.6062Z" fill="#F7F7F7"/>
<defs>
<linearGradient id="paint0_linear_5786_27681" x1="0" y1="0.000244141" x2="16.6749" y2="117.938" gradientUnits="userSpaceOnUse">
<stop stop-color="#FC4A1A"/>
<stop offset="1" stop-color="#DA8726"/>
</linearGradient>
</defs>
</svg>
