<svg width="320" height="240" viewBox="0 0 320 240" fill="none" xmlns="http://www.w3.org/2000/svg">
<g clip-path="url(#clip0_6626_25102)">
<path d="M406.978 136.617L336.617 44.4756L426.044 84.074L406.978 136.617Z" stroke="#5B2E16" stroke-width="1.2275" stroke-linejoin="round"/>
<path d="M316.679 98.316L406.105 137.914L387.039 190.457L316.679 98.316Z" stroke="#5B2E16" stroke-width="1.2275" stroke-linejoin="round"/>
<path d="M228.997 58.7176L318.423 98.316L248.063 6.1748L228.997 58.7176Z" stroke="#5B2E16" stroke-width="1.2275" stroke-linejoin="round"/>
<path d="M229.869 60.0152L248.935 7.47245L140.443 20.4168L229.869 60.0152Z" stroke="#5B2E16" stroke-width="1.2275" stroke-linejoin="round"/>
<path d="M120.504 74.2572L228.997 61.3128L209.931 113.856L120.504 74.2572Z" stroke="#5B2E16" stroke-width="1.2275" stroke-linejoin="round"/>
<path d="M317.551 99.6136L228.125 60.0152L209.059 112.558L317.551 99.6136Z" stroke="#5B2E16" stroke-width="1.2275" stroke-linejoin="round"/>
<path d="M189.12 166.398L297.613 153.454L208.186 113.856L189.12 166.398Z" stroke="#5B2E16" stroke-width="1.2275" stroke-linejoin="round"/>
<path d="M100.566 128.098L209.059 115.153L189.992 167.696L100.566 128.098Z" stroke="#5B2E16" stroke-width="1.2275" stroke-linejoin="round"/>
<path d="M189.12 168.994L170.054 221.536L80.6277 181.938L189.12 168.994Z" stroke="#5B2E16" stroke-width="1.2275" stroke-linejoin="round"/>
<path d="M258.608 259.837L277.675 207.294L169.182 220.239L258.608 259.837Z" stroke="#5B2E16" stroke-width="1.2275" stroke-linejoin="round"/>
<path d="M296.74 152.156L386.167 191.755L277.674 204.699L296.74 152.156Z" stroke="#5B2E16" stroke-width="1.2275" stroke-linejoin="round"/>
<path d="M276.802 205.997L347.163 298.138L257.736 258.54L276.802 205.997Z" stroke="#5B2E16" stroke-width="1.2275" stroke-linejoin="round"/>
<path d="M238.67 313.678L257.736 261.135L168.31 221.536L238.67 313.678Z" stroke="#5B2E16" stroke-width="1.2275" stroke-linejoin="round"/>
<path d="M150.116 275.377L60.6892 235.778L79.7554 183.236L150.116 275.377Z" stroke="#5B2E16" stroke-width="1.2275" stroke-linejoin="round"/>
<path d="M130.177 329.217L149.244 276.674L59.8171 237.076L130.177 329.217Z" stroke="#5B2E16" stroke-width="1.2275" stroke-linejoin="round"/>
</g>
<defs>
<clipPath id="clip0_6626_25102">
<rect width="320" height="240" fill="white"/>
</clipPath>
</defs>
</svg>
