<svg width="111" height="20" viewBox="0 0 111 20" fill="none" xmlns="http://www.w3.org/2000/svg">
<path d="M73.8217 16.1073H69.9365V5.31011H73.7646V6.63104C73.7646 6.63104 74.6206 5.01953 76.6277 5.01953C78.7442 5.01953 79.5423 6.76361 79.5423 6.76361C79.5423 6.76361 80.4941 5.01953 82.8609 5.01953C85.194 5.01953 86.6199 6.5488 86.6199 9.32008V16.1073H82.7347V10.0769C82.7347 9.36905 82.3217 8.63192 81.4869 8.63192C80.6206 8.63192 80.2208 9.45506 80.2208 10.2983V16.1073H76.3356V10.1918C76.3356 9.34915 75.907 8.63192 75.0644 8.63192C74.2826 8.63192 73.8217 9.3174 73.8217 10.3067V16.1073Z" fill="#7F19FF"/>
<path d="M92.6652 5.01953C89.6762 5.01953 87.6729 7.59112 87.6729 10.7266C87.6729 14.2595 89.9804 16.4004 92.6179 16.4004C94.7704 16.4004 95.7043 15.016 95.7043 15.016V16.1072H99.5323V5.31005H95.7043V6.40126C95.7043 6.40126 94.6765 5.01953 92.6652 5.01953ZM93.6392 8.57289C94.9396 8.57289 95.8251 9.62054 95.8251 10.7194C95.8251 11.8213 94.9403 12.9023 93.6463 12.9023C92.5878 12.9023 91.4748 12.045 91.4748 10.7483C91.4748 9.49789 92.4517 8.57289 93.6392 8.57289Z" fill="#7F19FF"/>
<path d="M101.144 16.1077V5.31055H105.029V16.1077H101.144Z" fill="#7F19FF"/>
<path d="M103.089 4.39562C104.296 4.39562 105.275 3.41169 105.275 2.19794C105.275 0.984185 104.296 0.000244141 103.089 0.000244141C101.881 0.000244141 100.902 0.984185 100.902 2.19794C100.902 3.41169 101.881 4.39562 103.089 4.39562Z" fill="#7F19FF"/>
<path d="M106.614 16.108V0.543945H110.499V16.108H106.614Z" fill="#7F19FF"/>
<path d="M0.500977 5.36816H4.62854L7.03196 11.5491L9.46659 5.36816H13.4854L7.43394 20.0003H3.38961L5.04611 16.123L0.500977 5.36816Z" fill="#35007D"/>
<path d="M17.6721 5.12207C14.5709 5.12207 12.6104 7.91785 12.6104 10.702C12.6104 13.835 14.7598 16.3189 17.6133 16.3189C19.7418 16.3189 20.5444 15.0153 20.5444 15.0153V16.0308H24.1444V5.36819H20.5444V6.33752C20.5444 6.33752 19.649 5.12207 17.6721 5.12207ZM18.4378 8.5486C19.8688 8.5486 20.6072 9.68674 20.6072 10.7137C20.6072 11.8196 19.8161 12.9048 18.4378 12.9048C17.2956 12.9048 16.2633 11.9664 16.2633 10.7608C16.2633 9.53804 17.0936 8.5486 18.4378 8.5486Z" fill="#35007D"/>
<path d="M25.3838 16.0309V0.660156H29.1492V6.37461C29.1492 6.37461 30.0436 5.12356 31.9167 5.12356C34.208 5.12356 35.5504 6.83961 35.5504 9.29176V16.0309H31.8125V10.2149C31.8125 9.38506 31.4193 8.58338 30.5285 8.58338C29.6218 8.58338 29.1492 9.39721 29.1492 10.2149V16.0309H25.3838Z" fill="#35007D"/>
<path d="M41.9709 5.12402C38.4194 5.12402 36.3047 7.83862 36.3047 10.747C36.3047 14.0569 38.8652 16.3196 41.9844 16.3196C45.0076 16.3196 47.6531 14.1596 47.6531 10.8026C47.6531 7.12941 44.8832 5.12402 41.9709 5.12402ZM42.0048 8.58067C43.2593 8.58067 44.1274 9.63097 44.1274 10.751C44.1274 11.7063 43.3185 12.8846 42.0048 12.8846C40.8011 12.8846 39.8977 11.914 39.8977 10.7406C39.8977 9.61017 40.6488 8.58067 42.0048 8.58067Z" fill="#35007D"/>
<path d="M53.926 5.12402C50.3745 5.12402 48.2598 7.83862 48.2598 10.747C48.2598 14.0569 50.8202 16.3196 53.9394 16.3196C56.9627 16.3196 59.6082 14.1596 59.6082 10.8026C59.6082 7.12941 56.8383 5.12402 53.926 5.12402ZM53.9599 8.58067C55.2144 8.58067 56.0824 9.63097 56.0824 10.751C56.0824 11.7063 55.2736 12.8846 53.9599 12.8846C52.7562 12.8846 51.8528 11.914 51.8528 10.7406C51.8528 9.61017 52.6039 8.58067 53.9599 8.58067Z" fill="#35007D"/>
<path d="M62.5795 16.2572C63.9604 16.2572 65.0798 15.1319 65.0798 13.7438C65.0798 12.3557 63.9604 11.2305 62.5795 11.2305C61.1986 11.2305 60.0791 12.3557 60.0791 13.7438C60.0791 15.1319 61.1986 16.2572 62.5795 16.2572Z" fill="#35007D"/>
<path d="M65.9017 10.3072H61.4004L65.3954 0.660156H69.8799L65.9017 10.3072Z" fill="#35007D"/>
</svg>
